<svg width="640" height="480" xmlns="http://www.w3.org/2000/svg">

 <metadata id="metadata7">image/svg+xml</metadata>
 <g>
  <title>background</title>
  <rect fill="none" id="canvas_background" height="482" width="642" y="-1" x="-1"/>
 </g>
 <g>
  <title>Layer 1</title>
  <line stroke="#cc0000" stroke-linecap="null" stroke-linejoin="null" id="svg_3" y2="-2" x2="330.333333" y1="477.453115" x1="0" stroke-width="30" fill="none"/>
  <line stroke-linecap="null" stroke-linejoin="null" id="svg_4" y2="478" x2="640" y1="-8" x1="329" fill-opacity="null" stroke-width="30" stroke="#00298c" fill="none"/>
  <line stroke-linecap="null" stroke-linejoin="null" id="svg_6" y2="477" x2="640" y1="477.453125" x1="0" fill-opacity="null" stroke-width="30" stroke="#97bfe6" fill="none"/>
  <g stroke="null" id="svg_20">
   <path stroke="#000000" stroke-width="4" d="m279.984755,40.692181l0,26.330107l-43.195253,0c-5.409763,0 -10.357024,3.512867 -12.190071,8.963453l-14.840087,43.696833l208.556223,0l11.92507,-26.330143l-37.100218,0c-6.795742,-0.047775 -12.190071,-5.897594 -12.190071,-13.165072c0,-7.267478 5.394329,-13.120254 12.190071,-13.165072l95.40056,0l0,26.330143l-31.005182,0l-17.755104,39.495215l34.450202,76.749566c12.784786,-4.759988 26.485103,-7.562913 40.810239,-7.562913c67.909332,0 122.960721,58.18958 122.960721,129.970068c0,71.780488 -55.051389,129.970068 -122.960721,129.970068c-64.205849,0 -116.872291,-52.146698 -122.430718,-118.485644l-54.855322,0c-3.666095,0 -7.390787,-1.821374 -9.805058,-4.761834l-136.740802,-164.703448l-13.780081,40.615646c41.619245,20.828573 70.490413,65.45895 70.490413,117.365212c0,71.780488 -55.051389,129.970068 -122.960721,129.970068c-67.909332,0 -122.960721,-58.18958 -122.960721,-129.970068c0,-71.780488 55.051389,-129.970068 122.960721,-129.970068c10.137425,0 19.991166,1.47646 29.415173,3.921511l46.905275,-138.093197c5.543917,-16.327826 20.076009,-27.170431 36.305213,-27.170431l42.400249,0zm126.405741,105.320536l-205.641206,0l133.560783,160.781937l72.080423,-160.781937zm19.610115,17.086582l-68.900404,153.77924l35.77521,0c4.520095,-40.920681 27.184478,-76.11118 59.095347,-96.357119l-25.970152,-57.42212zm89.040522,65.825358c-10.393776,0 -20.286458,1.858733 -29.680174,5.041942l40.810239,91.035069c1.788358,4.016254 1.440591,8.547549 -0.795005,12.324748c-2.213123,3.753267 -6.15482,6.162374 -10.335061,6.162374l-96.990569,0c5.362097,51.570635 46.772842,91.595285 96.990569,91.595285c53.859128,0 97.520572,-46.150354 97.520572,-103.079709c0,-56.929355 -43.661444,-103.079709 -97.520572,-103.079709zm-390.082288,0c-53.859128,0 -97.520572,46.150354 -97.520572,103.079709c0,56.929355 43.661444,103.079709 97.520572,103.079709c53.859128,0 97.520572,-46.150354 97.520572,-103.079709c0,-40.221451 -22.008451,-74.88921 -53.795316,-91.875393l-32.065188,94.676472c-2.36958,6.765435 -9.551419,10.049106 -15.900093,7.562913c-6.250246,-2.456309 -9.276971,-9.802952 -7.155042,-16.526366l32.065188,-94.676472c-6.6806,-1.528591 -13.556648,-2.240863 -20.670121,-2.240863zm337.876982,15.966151c-23.428325,15.71772 -40.046272,41.721261 -44.25526,71.987732l76.585449,0l-32.33019,-71.987732" fill="#007f00" id="svg_18"/>
  </g>
 </g>
</svg>