<svg width="640" height="480" xmlns="http://www.w3.org/2000/svg">

 <metadata id="metadata7">image/svg+xml</metadata>
 <g>
  <title>background</title>
  <rect fill="none" id="canvas_background" height="482" width="642" y="-1" x="-1"/>
 </g>
 <g>
  <title>Layer 1</title>
  <g id="layer1">
   <g fill="#000000" id="g5499" transform="matrix(2.465279,0,0,2.282609,1920.973,-187.8807) ">
    <g fill="#000000" id="g5478" transform="matrix(1.028571,0,0,1.022222,-443.2141,-46.11586) ">
     <path stroke="#000000" fill="#067a06" fill-rule="evenodd" id="path5490" d="m-172.285229,291.575709l22.90798,-4.14723l-14.43744,-20.8032c-7.48373,7.23814 -8.41455,15.92668 -8.47054,24.95043zm-6.30176,1.52209c-0.0369,-0.90164 -0.16744,-2.35148 -0.16744,-3.3666c0,-10.29422 3.00202,-20.29795 11.14974,-28.61187l-8.48546,-11.27016l-13.13407,44.446l10.63723,-1.19737zm-50.41148,-44.23474l0.72807,-2.47336l46.78028,-0.0679l-12.44447,41.84698l-0.53709,-4.36546l1.43181,0l-0.17973,-2.77807l-6.26121,0l0.17921,2.57986l1.61024,0l0.35762,4.76275c0,0 -31.4858,-39.30659 -31.66473,-39.50479l0,-0.00001zm-20.71854,40.19924c6.28213,-5.53526 11.17197,-10.8105 14.69826,-21.36766c5.56559,5.60056 8.74106,13.70118 8.74106,22.03656c0,16.55296 -12.17159,30.05418 -27.09459,30.05418c-14.92275,0 -27.09382,-13.50122 -27.09382,-30.05418c0,-16.55353 12.17107,-30.05446 27.09382,-30.05446c4.76268,0 9.63132,1.52587 13.55711,4.09645c-2.65749,9.31423 -5.24223,14.11818 -13.41846,21.4193c-1.98486,0.0929 -3.49386,1.86048 -3.49386,3.96878c0,2.18635 1.6071,3.96904 3.57758,3.96904c1.97073,0 3.4329,-1.78269 3.4329,-4.06801zm78.39164,8.89924c3.06429,12.66719 13.96576,21.8247 26.0314,21.8247c14.92299,0 27.09485,-13.50121 27.09485,-30.05504c0,-16.55353 -12.17186,-30.05532 -27.09485,-30.05532c-4.76295,0 -10.27359,1.24727 -14.29408,3.85791l14.70612,21.6587c1.79859,0.0314 3.36461,1.81403 3.36461,3.96878c0,2.18635 -1.60788,3.96904 -3.57809,3.96904c-0.54547,0 -1.11814,-0.15497 -1.60187,-0.40773l-24.62809,5.23896zm-66.55544,-41.145l9.59784,-29.37104l-3.04126,-5.75552l6.08254,-7.34203l13.05925,0l0.17921,4.16727l-11.44954,0l-2.32575,2.77806l2.68336,5.35795l-3.37429,13.26674l46.86791,0l0.71577,-2.42636c-3.76671,-0.54382 -10.26337,-3.11818 -11.81501,-4.61271c-1.55163,-1.49539 -0.19307,-2.87036 1.5744,-2.93479c9.25041,-0.43587 22.99327,-1.29545 25.60417,-1.30791c2.61014,-0.0134 2.87776,1.44315 1.13017,3.56363c-1.74758,2.1202 -3.27514,4.02941 -9.89608,5.16728l-1.78865,5.35795l11.09009,15.24066c5.22756,-3.52039 11.54974,-5.35184 17.69271,-5.35184c18.42967,0 33.46097,16.67368 33.46097,37.11732c0,20.44337 -15.0313,37.11675 -33.46097,37.11675c-15.16186,0 -28.49398,-11.59867 -32.41191,-27.62956l-10.19092,2.0314c-0.43637,1.3326 -1.453,2.35467 -2.66767,3.15446l1.8177,9.56293l2.32547,0l0.17895,2.57987l-7.33462,0.39641l0,-2.77807l1.78918,0l-2.2156,-9.55742c-3.29712,-0.5981 -5.02457,-3.72876 -4.04273,-6.83593l-33.29067,-41.76515l-1.49041,4.48125c8.07969,7.05939 12.91589,17.93372 12.91589,29.24306c0,20.44337 -15.0313,37.11675 -33.46097,37.11675c-18.42942,0 -33.46072,-16.67338 -33.46072,-37.11675c0,-20.44364 15.0313,-37.11732 33.46072,-37.11732c5.35916,0 10.84887,1.45071 15.49147,4.20266z"/>
    </g>
   </g>
  </g>
  <line stroke="#cc0000" stroke-linecap="null" stroke-linejoin="null" id="svg_3" y2="-2" x2="329.000003" y1="477.453115" x1="0" stroke-width="10" fill="none"/>
  <line stroke-linecap="null" stroke-linejoin="null" id="svg_4" y2="478" x2="640" y1="-2" x1="329" fill-opacity="null" stroke-width="10" stroke="#00298c" fill="none"/>
  <line stroke-linecap="null" stroke-linejoin="null" id="svg_6" y2="477" x2="640" y1="477.453125" x1="0" fill-opacity="null" stroke-width="10" stroke="#97bfe6" fill="none"/>
 </g>
</svg>