<?xml version="1.0" standalone="no"?>
<!DOCTYPE svg PUBLIC "-//W3C//DTD SVG 20010904//EN"
 "http://www.w3.org/TR/2001/REC-SVG-20010904/DTD/svg10.dtd">
<svg version="1.0" xmlns="http://www.w3.org/2000/svg"
 width="1280.000000pt" height="1280.000000pt" viewBox="0 0 1280.000000 1280.000000"
 preserveAspectRatio="xMidYMid meet">
<metadata>
Created by potrace 1.11, written by Peter Selinger 2001-2013
</metadata>
<g transform="translate(0.000000,1280.000000) scale(0.100000,-0.100000)"
fill="#000000" stroke="none">
<path d="M6193 11170 c-13 -15 -23 -31 -23 -35 0 -3 -5 -11 -11 -18 -5 -7 -36
-49 -67 -94 -120 -173 -237 -344 -247 -360 -5 -10 -16 -23 -22 -31 -7 -7 -13
-17 -13 -22 0 -5 -8 -16 -17 -25 -9 -10 -44 -59 -78 -110 -57 -85 -80 -104
-80 -65 0 13 -60 15 -480 14 -454 -1 -550 -4 -571 -16 -5 -3 -25 -9 -44 -13
-45 -9 -151 -58 -215 -98 -50 -32 -205 -175 -205 -190 0 -4 -9 -17 -20 -29
-16 -18 -104 -182 -105 -198 -1 -9 -97 -292 -112 -330 -3 -8 -8 -21 -10 -27
-1 -7 -5 -19 -6 -25 -2 -7 -7 -20 -10 -28 -4 -8 -36 -103 -72 -210 -36 -107
-78 -229 -92 -270 -14 -41 -26 -79 -28 -85 -1 -5 -7 -23 -14 -39 -6 -16 -13
-36 -15 -45 -2 -9 -6 -23 -9 -31 -17 -41 -80 -227 -80 -237 0 -7 -3 -13 -7
-13 -4 0 -7 -6 -7 -12 0 -7 -17 -62 -38 -123 -101 -294 -127 -371 -130 -385
-2 -8 -26 -79 -54 -157 -27 -79 -46 -143 -43 -143 4 0 2 -4 -3 -8 -6 -4 -20
-36 -30 -72 -10 -36 -24 -68 -30 -72 -5 -4 -7 -8 -3 -8 3 0 -16 -64 -44 -142
-27 -79 -51 -150 -52 -158 -2 -8 -8 -28 -15 -43 -6 -16 -11 -34 -11 -41 0 -7
-6 -20 -13 -30 -11 -15 -19 -16 -53 -7 -52 14 -105 23 -228 41 -43 7 -119 13
-170 15 -50 2 -93 5 -96 6 -3 1 -9 0 -15 -1 -5 -1 -59 -3 -120 -5 -60 -2 -123
-6 -140 -9 -16 -3 -54 -8 -84 -11 -29 -3 -56 -7 -60 -9 -4 -3 -27 -7 -51 -11
-38 -6 -150 -33 -265 -65 -53 -14 -180 -62 -190 -71 -5 -5 -15 -9 -22 -9 -29
0 -264 -124 -377 -199 -38 -25 -76 -50 -85 -56 -20 -12 -136 -101 -176 -135
-40 -34 -264 -257 -295 -295 -14 -16 -51 -64 -82 -105 -32 -41 -61 -79 -66
-85 -66 -82 -274 -467 -298 -550 -1 -5 -20 -59 -42 -120 -21 -60 -39 -114 -40
-120 -1 -5 -6 -23 -12 -40 -5 -16 -11 -39 -13 -50 -1 -11 -6 -26 -10 -32 -5
-7 -6 -13 -3 -13 2 0 1 -14 -4 -32 -5 -17 -12 -49 -16 -72 -3 -22 -8 -44 -11
-49 -2 -4 -6 -29 -8 -55 -3 -26 -7 -58 -10 -72 -13 -59 -19 -179 -19 -375 1
-219 6 -304 23 -393 6 -29 10 -56 9 -60 -1 -4 2 -18 5 -32 4 -14 9 -38 11 -55
9 -54 32 -154 44 -185 3 -8 7 -25 9 -37 2 -13 20 -67 39 -120 19 -54 36 -102
38 -108 2 -5 10 -27 20 -47 9 -21 16 -41 16 -45 0 -11 140 -285 161 -315 11
-14 19 -31 19 -37 0 -7 7 -14 15 -17 8 -4 15 -14 15 -24 0 -10 4 -20 8 -22 13
-5 82 -111 82 -125 0 -7 -4 -13 -10 -13 -5 0 -10 -6 -10 -12 0 -7 -14 -28 -30
-47 -17 -18 -30 -39 -30 -46 0 -7 -7 -16 -16 -19 -8 -3 -12 -10 -9 -16 3 -5 3
-10 -2 -10 -4 0 -28 -30 -53 -67 -25 -37 -49 -72 -53 -78 -32 -40 -117 -167
-117 -174 0 -5 -4 -11 -8 -13 -10 -4 -122 -167 -122 -178 0 -5 -4 -10 -8 -12
-4 -1 -18 -17 -30 -35 -21 -30 -22 -38 -22 -322 l0 -291 6400 0 6401 0 -3 308
c-3 303 -3 308 -25 332 -13 13 -23 27 -23 30 0 4 -27 48 -60 98 -33 51 -60 94
-60 97 0 8 -64 100 -72 103 -5 2 -8 8 -8 13 0 6 -18 37 -40 69 -22 32 -40 62
-40 65 0 3 -9 15 -20 27 -11 12 -20 28 -20 35 0 7 -4 13 -10 13 -5 0 -10 5
-10 10 0 6 -25 47 -54 92 -47 69 -53 84 -44 102 6 12 14 23 17 26 18 15 113
174 179 303 60 116 191 447 176 447 -2 0 3 17 11 37 8 21 17 49 19 63 3 14 5
26 7 28 2 3 4 9 14 62 5 25 9 47 10 50 1 3 7 39 14 80 7 41 15 86 17 100 24
137 24 674 0 740 -3 8 -7 33 -10 55 -3 22 -10 65 -16 95 -6 30 -13 70 -16 89
-2 19 -7 38 -11 44 -3 6 -7 20 -8 31 -6 51 -95 313 -141 416 -9 19 -41 85 -72
145 -30 61 -60 120 -66 132 -6 13 -14 23 -18 23 -5 0 -8 5 -8 10 0 16 -157
247 -190 280 -3 3 -23 28 -44 55 -51 65 -255 268 -326 325 -30 25 -57 47 -60
51 -9 10 -207 149 -213 149 -3 0 -25 13 -49 29 -43 28 -257 137 -313 159 -16
6 -43 17 -60 23 -16 7 -32 13 -35 14 -55 15 -126 42 -128 47 -2 5 -7 6 -12 3
-4 -3 -26 2 -49 10 -23 8 -41 12 -41 10 0 -3 -12 0 -26 6 -15 5 -43 12 -63 15
-20 3 -52 9 -71 14 -19 5 -62 11 -95 15 -32 4 -63 8 -66 11 -4 2 -68 6 -143 8
-74 3 -140 7 -146 11 -5 3 -10 3 -10 -2 0 -4 -30 -8 -68 -9 -79 0 -199 -12
-262 -24 -25 -5 -58 -11 -75 -14 -16 -2 -70 -14 -119 -26 -48 -12 -89 -20 -90
-18 -21 29 -66 100 -66 104 0 3 -5 10 -10 17 -22 25 -180 276 -180 286 0 5 -3
11 -8 13 -8 3 -122 174 -122 183 0 3 -5 11 -10 18 -30 34 -176 271 -204 332
-64 134 -71 150 -71 155 -1 3 -11 28 -24 55 -13 28 -30 66 -39 85 -8 19 -28
62 -44 96 -39 82 -39 90 4 184 93 201 218 483 218 491 0 5 5 9 12 9 6 0 9 3 6
6 -7 6 50 136 62 144 5 3 148 5 319 4 l311 -1 0 303 0 303 -111 3 c-61 2 -112
1 -114 -2 -2 -3 -56 -3 -120 0 -64 3 -119 2 -121 -1 -2 -4 -20 -3 -39 1 -19 4
-37 5 -39 1 -2 -3 -57 -4 -121 -1 -64 3 -118 3 -120 0 -2 -3 -128 -3 -280 0
-152 3 -278 3 -280 0 -2 -3 -56 -3 -120 0 -64 3 -118 3 -120 2 -2 -2 -81 -3
-177 -3 l-173 1 -22 28 c-13 15 -23 33 -23 40 0 6 -3 12 -7 12 -5 0 -21 24
-37 53 -16 28 -32 54 -36 57 -3 3 -27 39 -53 80 -25 41 -51 80 -57 87 -5 7
-10 15 -10 18 0 8 -43 68 -55 77 -5 4 -7 8 -3 8 3 0 -14 30 -38 68 -162 248
-184 283 -184 292 0 6 -4 10 -8 10 -5 0 -15 12 -23 28 -7 15 -30 53 -51 84
-21 31 -38 60 -38 63 0 3 -9 15 -19 27 -11 11 -26 32 -33 47 -7 14 -42 70 -77
124 l-63 97 -412 -1 -411 0 -22 -29z m623 -735 c104 -162 215 -334 247 -383
31 -48 60 -94 64 -102 4 -8 37 -61 75 -117 37 -56 68 -105 68 -108 0 -8 44
-69 53 -73 4 -2 7 -8 7 -14 0 -6 11 -26 25 -43 13 -18 21 -35 18 -39 -4 -3 -2
-6 3 -6 6 0 26 -27 45 -60 18 -33 37 -60 42 -60 4 0 7 -4 7 -10 0 -9 128 -213
149 -237 6 -7 11 -15 11 -18 0 -3 23 -39 50 -80 28 -41 50 -79 50 -85 0 -5 5
-10 10 -10 6 0 10 -6 10 -13 0 -8 9 -22 20 -32 11 -10 20 -22 20 -28 0 -5 9
-22 21 -38 l20 -29 -33 -1 c-150 -3 -2460 -1 -2463 3 -3 3 5 20 18 39 143 210
224 327 239 343 10 11 18 26 18 33 0 7 5 13 10 13 6 0 10 6 10 14 0 8 4 16 8
18 5 2 57 75 117 163 60 88 112 162 115 165 3 3 17 23 30 45 24 40 34 54 58
80 6 7 12 16 12 20 0 5 39 64 50 75 3 3 23 32 45 65 22 33 46 66 53 73 6 7 12
17 12 21 0 7 11 23 50 68 5 7 15 24 22 38 6 14 15 25 19 25 4 0 10 8 14 19 3
10 13 28 23 39 15 19 115 162 152 218 62 95 185 270 192 272 4 2 8 10 8 18 0
8 4 14 9 14 5 0 94 -133 197 -295z m-1563 -629 c-15 -25 -58 -81 -66 -84 -4
-2 -5 -7 -2 -12 3 -5 -1 -14 -8 -22 -22 -23 -157 -218 -157 -228 0 -4 -3 -10
-7 -12 -7 -3 -45 -54 -83 -112 -44 -68 -76 -111 -82 -114 -5 -2 -8 -10 -8 -17
0 -7 -3 -15 -7 -17 -12 -5 -73 -95 -73 -106 0 -6 -4 -12 -8 -14 -4 -1 -28 -32
-52 -68 -25 -36 -48 -66 -52 -68 -5 -2 -8 -8 -8 -13 0 -6 -5 -15 -10 -22 -6
-7 -16 -20 -23 -30 -12 -17 -30 -19 -184 -20 l-170 -2 9 30 c5 17 11 38 13 48
2 9 7 23 12 30 4 6 8 17 8 22 1 6 4 17 8 25 3 8 20 56 36 105 108 325 202 590
218 614 24 38 71 75 110 89 20 6 132 11 290 12 141 0 259 2 261 4 8 9 41 -7
35 -18z m3270 -515 c15 -1 16 -4 6 -23 -7 -13 -12 -24 -11 -25 3 -5 -52 -118
-61 -124 -5 -3 -8 -10 -8 -15 1 -5 -4 -22 -9 -39 l-11 -30 -20 25 c-10 14 -23
30 -28 36 -5 6 -12 20 -15 32 -4 12 -11 22 -16 22 -4 0 -10 8 -14 18 -5 17
-26 52 -36 62 -18 17 -38 59 -30 62 9 3 203 2 253 -1z m-4357 -1062 c3 -5 0
-9 -5 -9 -6 0 -11 -7 -11 -17 0 -14 -2 -14 -20 2 -28 25 -26 43 5 37 14 -2 28
-8 31 -13z m851 7 c3 -3 14 -1 24 4 11 6 20 6 24 1 3 -6 17 -6 34 -1 15 4 34
4 41 0 7 -5 23 -5 35 0 11 4 28 4 37 -1 11 -6 19 -5 23 1 4 7 13 7 26 0 12 -7
19 -7 19 -1 0 7 8 7 23 2 12 -5 31 -5 42 -1 11 4 29 4 40 0 11 -4 29 -4 40 0
11 4 27 4 35 0 8 -4 24 -4 35 0 11 4 28 4 37 -1 10 -6 19 -5 23 1 4 7 13 7 26
0 12 -7 19 -7 19 -1 0 7 8 7 23 2 12 -5 31 -5 42 -1 11 4 24 5 28 3 8 -5 91
-7 112 -3 24 4 86 2 92 -3 3 -4 13 -2 23 3 10 5 20 7 23 3 6 -5 83 -7 105 -3
19 4 84 2 89 -3 3 -4 13 -2 23 3 10 5 20 7 23 3 6 -5 83 -7 105 -3 19 4 84 2
89 -3 3 -4 13 -2 23 3 10 5 20 7 23 3 6 -5 83 -7 105 -3 19 4 84 2 89 -3 3 -4
13 -2 23 3 10 5 20 7 23 3 6 -5 83 -7 105 -3 19 4 84 2 89 -3 3 -4 13 -2 23 3
10 5 20 7 23 3 6 -5 85 -7 105 -3 20 5 38 5 52 -1 8 -4 24 -3 35 1 11 4 28 4
37 -1 10 -6 19 -5 23 1 4 7 13 7 26 0 12 -7 19 -7 19 -1 0 7 8 7 23 2 12 -5
31 -5 42 -1 11 4 29 4 40 0 11 -4 29 -4 40 0 11 4 27 4 35 0 8 -4 24 -4 35 0
11 4 28 4 37 -1 10 -6 19 -5 23 1 4 7 13 7 26 0 12 -7 19 -7 19 -1 0 7 8 7 23
2 12 -5 31 -5 42 -1 11 4 24 5 28 3 8 -5 91 -7 112 -3 16 3 78 1 108 -3 15 -3
30 -1 33 4 2 5 15 4 28 -1 13 -5 26 -7 29 -4 5 5 93 8 112 4 6 -1 13 -2 18 -1
11 2 9 -13 -7 -45 -11 -24 -75 -166 -161 -359 -7 -16 -28 -61 -45 -100 -37
-80 -52 -118 -50 -124 1 -2 -2 -7 -7 -10 -5 -3 -24 -43 -43 -88 -18 -46 -38
-83 -43 -83 -6 0 -8 -3 -5 -6 6 -5 -10 -43 -83 -202 -16 -35 -29 -65 -29 -67
0 -4 -26 -62 -101 -223 -22 -46 -39 -86 -39 -88 0 -2 -12 -29 -26 -61 -68
-150 -83 -183 -114 -253 -18 -41 -48 -109 -67 -150 -46 -97 -73 -160 -71 -163
1 -1 -5 -15 -15 -32 -18 -33 -97 -204 -97 -210 0 -3 -12 -30 -26 -62 -15 -32
-35 -76 -45 -98 -9 -22 -38 -85 -63 -139 -25 -54 -46 -105 -46 -112 0 -8 -4
-14 -9 -14 -7 0 -14 -16 -26 -60 0 -3 -17 -39 -37 -80 -19 -41 -55 -119 -79
-174 l-43 -98 -18 23 c-10 13 -27 33 -36 44 -10 11 -51 61 -92 110 -41 50 -77
92 -80 95 -3 3 -31 37 -62 75 -31 39 -65 79 -75 90 -10 11 -41 49 -68 83 -28
35 -65 79 -82 98 -18 19 -33 38 -33 42 -1 4 -19 25 -40 47 -22 22 -40 44 -40
49 0 5 -6 14 -14 20 -8 6 -74 83 -146 171 -170 206 -208 251 -247 296 -18 20
-33 39 -33 42 0 3 -14 21 -31 39 -16 18 -40 46 -52 61 -12 16 -33 41 -47 57
-14 15 -50 58 -80 96 -30 37 -62 75 -70 83 -8 9 -35 41 -60 71 -25 30 -49 60
-55 66 -5 6 -21 26 -35 44 -28 36 -49 62 -83 100 -13 14 -52 61 -87 105 -35
44 -67 82 -70 85 -3 3 -25 30 -50 60 -25 30 -47 57 -50 60 -3 3 -37 43 -75 90
-75 91 -92 111 -125 150 -12 14 -31 38 -43 53 -12 15 -30 37 -39 49 -18 21
-13 39 25 82 9 11 17 23 17 27 0 4 6 14 13 21 11 11 136 191 221 318 17 25 34
47 38 48 4 2 8 8 8 14 0 5 7 16 15 24 8 9 15 13 15 10 0 -3 9 -2 21 2 22 9 77
7 86 -2z m3503 -460 c0 -8 6 -21 13 -28 14 -15 86 -131 104 -168 7 -14 26 -56
44 -95 31 -70 48 -106 110 -240 17 -38 33 -75 34 -80 2 -6 24 -55 50 -110 50
-106 68 -150 63 -150 -2 -1 4 -12 12 -25 44 -70 43 -75 -13 -111 -128 -83
-398 -325 -487 -436 -14 -18 -36 -46 -50 -64 -14 -17 -37 -46 -52 -64 -16 -18
-28 -38 -28 -44 0 -6 -4 -11 -8 -11 -4 0 -21 -21 -38 -47 -16 -25 -35 -52 -42
-60 -7 -7 -11 -13 -8 -13 4 0 -9 -24 -28 -52 -38 -58 -87 -145 -111 -195 -36
-78 -49 -108 -47 -115 1 -5 -3 -8 -10 -8 -6 0 -8 -3 -5 -7 4 -3 3 -11 -2 -17
-15 -18 -93 -234 -89 -246 1 -3 -4 -14 -10 -26 -6 -11 -13 -32 -16 -45 -3 -13
-12 -50 -20 -81 -9 -32 -18 -72 -21 -90 -4 -18 -10 -52 -16 -76 -5 -23 -12
-59 -14 -80 -3 -20 -8 -49 -11 -63 l-5 -26 -305 0 -305 -1 7 22 c4 11 24 59
45 104 22 46 39 85 39 87 0 2 15 36 34 77 76 167 106 236 106 247 0 6 5 11 10
11 6 0 9 3 8 8 -1 8 14 47 42 107 72 155 93 201 95 210 2 6 21 50 44 99 22 48
41 94 41 102 0 8 4 14 10 14 5 0 13 12 16 28 4 15 13 38 20 52 18 36 84 180
84 185 0 2 20 47 45 99 25 53 45 102 45 110 0 7 7 19 15 26 8 7 12 16 9 21 -3
5 0 9 5 9 6 0 10 3 9 8 -3 14 14 62 23 62 5 0 9 5 9 11 0 6 6 25 14 42 8 18
23 52 34 77 33 75 63 143 83 184 11 22 19 45 19 52 0 6 7 17 15 24 8 7 15 18
15 25 0 7 17 48 37 91 20 43 37 81 38 84 0 3 12 30 26 60 25 54 111 251 123
280 3 8 10 22 15 30 15 23 91 199 91 210 0 6 5 10 11 10 5 0 7 5 4 10 -3 6 1
10 9 10 9 0 16 -6 16 -14z m-4267 -635 c-1 -2 3 -9 10 -16 17 -18 82 -95 173
-205 43 -52 83 -100 89 -106 5 -7 26 -31 45 -55 19 -24 45 -54 58 -67 12 -13
22 -25 22 -29 0 -3 27 -36 61 -74 34 -38 58 -69 55 -69 -3 0 7 -12 22 -27 15
-16 47 -53 72 -83 24 -30 48 -60 54 -65 6 -6 26 -30 45 -55 19 -25 41 -52 48
-60 19 -21 53 -61 88 -105 17 -20 40 -47 53 -60 12 -13 22 -29 22 -35 0 -5 3
-10 8 -10 4 0 29 -28 57 -63 27 -34 62 -74 77 -90 15 -15 28 -29 28 -32 0 -3
46 -61 103 -128 56 -68 120 -145 142 -172 22 -27 52 -62 67 -79 15 -17 77 -92
138 -166 61 -74 121 -147 133 -161 12 -14 36 -43 52 -63 17 -21 41 -51 55 -66
14 -15 36 -42 50 -60 14 -18 32 -40 40 -50 8 -10 31 -36 50 -59 19 -23 43 -52
53 -64 11 -12 33 -39 50 -61 18 -21 37 -43 42 -50 6 -6 30 -36 55 -66 25 -30
49 -60 55 -66 5 -6 26 -30 45 -54 77 -95 101 -117 157 -146 l58 -29 565 -5
c425 -4 566 -8 567 -17 2 -6 5 -38 9 -69 3 -32 8 -67 10 -78 3 -12 7 -36 10
-55 2 -19 9 -52 15 -75 6 -23 12 -52 13 -66 2 -14 6 -32 9 -40 3 -8 15 -51 27
-95 12 -44 26 -89 30 -100 5 -11 25 -65 46 -120 20 -55 55 -138 78 -185 22
-47 40 -88 39 -92 -2 -3 4 -12 12 -18 8 -7 15 -16 15 -21 0 -5 23 -46 50 -90
28 -44 50 -82 50 -85 0 -5 72 -106 87 -122 7 -7 13 -17 13 -21 0 -4 12 -21 28
-39 15 -17 36 -43 47 -58 66 -90 270 -294 383 -383 151 -119 393 -272 479
-303 18 -7 33 -16 33 -20 0 -4 3 -7 8 -6 4 2 32 -8 62 -22 30 -13 57 -25 60
-25 3 -1 12 -5 20 -8 81 -35 341 -108 392 -110 9 -1 15 -3 13 -6 -3 -2 -1560
-5 -3460 -6 -1901 -1 -3452 2 -3448 5 5 3 37 12 73 19 133 25 377 111 530 186
135 66 399 232 408 257 2 4 8 8 13 8 5 0 17 7 27 15 9 9 44 39 77 68 111 95
261 251 335 347 19 25 38 50 43 55 40 50 117 163 117 173 0 6 4 12 8 12 5 0
16 15 25 33 9 17 28 52 43 77 85 145 193 400 238 565 15 55 30 107 33 115 3 8
7 22 8 30 1 8 8 42 15 75 7 33 13 65 15 70 1 6 5 33 9 60 4 28 10 61 12 75 25
156 24 534 0 720 -8 57 -24 151 -31 180 -1 3 -5 23 -9 45 -5 22 -17 74 -28
115 -11 41 -22 81 -23 90 -2 8 -4 16 -5 18 -2 1 -3 6 -4 11 0 5 -4 13 -8 17
-5 4 -8 14 -8 21 0 20 -68 198 -101 266 -15 31 -26 57 -24 57 2 0 -17 37 -42
83 -25 45 -53 97 -63 114 -24 45 -165 254 -188 278 -10 11 -23 28 -28 36 -22
40 -199 227 -301 321 -23 20 -83 70 -136 111 l-94 74 16 27 c8 14 19 26 23 26
5 0 8 4 8 9 0 8 133 205 160 238 5 7 10 17 10 23 0 5 3 10 8 10 4 0 24 27 45
60 l39 59 32 -32 c17 -18 31 -34 29 -36z m-1493 -575 c14 -3 38 -9 54 -12 50
-9 50 -1 0 -144 -3 -8 -5 -15 -4 -15 1 0 -8 -24 -19 -52 -11 -29 -18 -53 -16
-53 3 0 0 -10 -7 -22 -7 -13 -13 -27 -14 -33 0 -5 -4 -17 -7 -25 -4 -8 -13
-34 -21 -57 -8 -24 -20 -48 -26 -55 -10 -11 -159 -225 -185 -266 -5 -8 -76
-110 -156 -226 -80 -116 -154 -226 -164 -243 -11 -18 -22 -33 -26 -33 -3 0
-10 -10 -16 -22 -6 -13 -27 -44 -47 -70 -20 -27 -33 -48 -28 -48 4 0 2 -4 -5
-8 -6 -4 -50 -65 -99 -137 -48 -71 -90 -132 -93 -135 -3 -3 -10 -12 -16 -21
-5 -9 -32 -49 -60 -88 -27 -40 -54 -79 -60 -89 -13 -23 -58 -86 -65 -92 -3 -3
-16 -22 -29 -43 -13 -21 -29 -43 -35 -50 -7 -7 -19 -23 -26 -37 -7 -13 -17
-29 -21 -34 -27 -34 -117 -166 -113 -166 3 0 -1 -6 -8 -14 -23 -24 -48 -56
-48 -61 0 -3 -23 -36 -50 -75 -28 -39 -50 -74 -50 -79 0 -5 -3 -11 -7 -13 -8
-3 -34 -39 -114 -158 -24 -36 -47 -66 -51 -68 -5 -2 -8 -8 -8 -13 0 -6 -6 -17
-12 -25 -23 -26 -33 -40 -43 -56 -38 -59 -89 -134 -94 -138 -4 -3 -20 -26 -36
-52 -17 -26 -35 -50 -42 -52 -7 -3 -25 20 -43 52 -46 86 -100 201 -100 215 0
7 -4 17 -9 23 -11 10 -67 175 -75 216 -2 15 -7 31 -10 36 -6 10 -18 69 -20 95
0 9 -3 17 -6 17 -3 0 -6 12 -7 28 0 15 -3 38 -6 52 -16 76 -21 144 -21 325 -1
233 9 334 50 504 9 36 17 72 19 80 11 52 95 282 105 291 9 7 32 68 30 76 -1 4
3 10 8 13 5 3 19 26 32 51 30 61 182 290 192 290 4 0 8 4 8 9 0 28 289 314
348 345 9 4 22 14 27 20 13 15 133 91 168 107 15 7 27 16 27 21 0 4 8 8 17 8
9 0 24 7 34 16 9 8 23 17 31 18 7 1 27 10 45 19 17 9 58 26 90 38 32 12 64 26
71 32 6 5 12 7 12 3 0 -3 12 -1 27 5 70 27 232 63 338 75 28 4 52 8 54 10 7 6
403 -3 431 -10z m7775 1 c11 -3 40 -8 65 -11 25 -3 90 -17 145 -32 55 -14 107
-27 115 -29 13 -3 108 -40 165 -64 20 -9 150 -74 190 -96 49 -26 147 -93 222
-152 97 -75 313 -288 313 -308 0 -3 8 -14 18 -24 29 -33 41 -49 74 -98 18 -27
34 -50 37 -53 4 -3 12 -16 19 -29 8 -13 23 -40 34 -60 37 -64 96 -184 118
-241 12 -30 26 -64 30 -75 26 -66 39 -105 34 -105 -4 0 0 -7 7 -17 8 -9 13
-19 12 -22 -3 -7 14 -77 24 -101 3 -8 6 -18 5 -22 -1 -4 5 -44 14 -89 8 -45
18 -100 20 -123 10 -77 12 -421 3 -486 -18 -132 -22 -152 -34 -210 -11 -53
-15 -67 -35 -140 -12 -41 -22 -79 -23 -85 -2 -5 -5 -14 -8 -20 -5 -8 -29 -75
-34 -95 -9 -34 -109 -240 -116 -240 -4 0 -40 51 -80 113 -40 61 -101 157 -137
211 -35 55 -69 110 -75 123 -5 12 -14 23 -19 23 -4 0 -8 7 -8 15 0 8 -4 15
-10 15 -5 0 -10 5 -10 11 0 7 -16 34 -35 60 -19 27 -35 51 -35 54 0 3 -16 28
-35 55 -19 27 -35 52 -35 54 0 2 -18 31 -40 64 -22 33 -40 65 -40 71 0 6 -4
11 -8 11 -5 0 -15 12 -23 28 -8 15 -29 48 -46 73 -18 26 -33 51 -33 57 0 6 -4
12 -9 14 -5 2 -17 17 -27 35 -46 77 -119 190 -136 209 -10 11 -15 23 -12 27 4
4 -1 9 -10 13 -9 3 -16 11 -16 17 0 6 -15 33 -34 61 -45 68 -105 164 -108 174
-1 4 -9 15 -18 25 -9 9 -23 30 -31 45 -8 15 -18 32 -24 39 -5 6 -23 34 -40 62
-16 28 -33 51 -37 51 -5 0 -8 5 -8 10 0 10 -88 153 -109 177 -6 7 -11 14 -11
17 0 3 -13 24 -28 48 -16 24 -47 72 -70 108 -22 36 -46 70 -51 77 -6 7 -11 16
-11 20 0 4 -14 26 -30 47 -17 22 -30 44 -30 49 0 6 -6 18 -14 26 -23 25 -186
282 -186 292 0 5 -4 9 -10 9 -5 0 -10 7 -10 15 0 8 -4 15 -8 15 -5 0 -16 15
-26 33 -21 40 -30 54 -91 147 -27 41 -49 78 -47 83 1 4 -2 7 -8 7 -8 0 -15 29
-7 30 1 1 29 3 62 7 33 3 62 7 64 9 6 5 362 -3 386 -9z m-6969 -334 c10 -10
46 -38 79 -63 104 -79 345 -329 345 -359 0 -6 4 -11 9 -11 26 0 264 -424 261
-465 0 -3 7 -19 15 -35 8 -16 15 -31 14 -32 0 -2 4 -15 10 -31 6 -15 13 -38
15 -50 2 -12 11 -42 19 -67 18 -56 54 -235 63 -315 9 -78 10 -394 2 -465 -4
-30 -10 -77 -13 -105 -3 -27 -20 -104 -36 -170 -17 -66 -32 -127 -34 -135 -2
-8 -4 -16 -4 -17 -1 -2 -1 -5 -1 -8 0 -3 -6 -18 -15 -35 -8 -16 -16 -37 -18
-47 -9 -44 -133 -305 -148 -311 -5 -2 -9 -8 -9 -14 0 -15 -82 -139 -144 -218
-296 -381 -701 -630 -1161 -714 -5 -1 -16 -5 -22 -9 -8 -5 -13 -3 -13 3 0 6
-5 8 -10 5 -15 -9 -46 -14 -125 -19 -39 -3 -72 -6 -75 -6 -29 -9 -305 9 -367
24 -11 2 -43 8 -70 12 -26 3 -52 9 -58 13 -5 3 -20 7 -32 9 -12 1 -55 14 -95
27 -40 14 -80 27 -88 30 -25 7 -124 50 -140 60 -8 5 -19 10 -25 11 -5 1 -34
16 -63 33 -29 17 -57 31 -62 31 -6 0 -10 4 -10 9 0 5 -10 13 -23 17 -19 6 -40
20 -94 64 -7 6 -15 10 -18 10 -16 0 -133 105 -128 114 22 35 178 262 183 266
4 3 15 20 25 38 11 17 23 32 27 32 4 0 8 5 8 11 0 6 8 21 18 34 9 12 23 31 29
41 7 11 45 66 85 124 128 184 173 250 183 268 6 9 12 19 15 22 13 11 146 206
152 222 4 10 12 18 18 18 5 0 10 4 10 9 0 9 154 237 180 268 5 7 10 15 10 18
0 4 7 13 15 22 14 13 19 11 52 -21 21 -20 43 -36 50 -36 7 0 13 -4 13 -9 0
-13 98 -36 145 -33 22 1 56 7 75 13 67 22 154 101 165 152 4 15 11 27 16 27 6
0 9 6 8 13 -1 6 1 19 4 27 11 26 38 104 42 121 6 27 56 173 65 190 9 17 29 88
30 102 0 4 7 21 15 37 9 17 13 30 9 30 -4 0 -1 6 5 14 7 8 14 25 17 37 3 13 6
29 7 34 2 6 5 15 8 20 4 6 9 22 13 37 3 15 11 40 18 55 6 15 12 30 13 33 0 3
14 43 30 90 16 47 30 87 30 90 2 12 17 57 25 75 5 11 27 76 50 145 34 102 54
144 113 233 39 59 75 107 80 107 4 0 5 5 2 10 -3 6 -3 10 2 10 4 0 22 23 38
50 17 27 33 50 38 50 4 0 7 7 7 15 0 8 5 15 10 15 6 0 10 5 10 10 0 11 72 109
81 109 3 1 14 -7 25 -16z m5697 -40 c11 -27 20 -51 19 -55 -1 -5 3 -8 8 -8 6
0 9 -3 8 -7 -1 -5 11 -37 27 -73 17 -36 29 -68 27 -72 -1 -5 2 -8 7 -8 5 0 13
-10 16 -22 8 -26 18 -48 74 -171 23 -49 41 -91 41 -93 0 -3 16 -36 34 -74 19
-39 32 -70 29 -70 -3 0 1 -7 8 -16 7 -9 14 -21 15 -28 2 -10 18 -46 104 -231
15 -33 33 -77 41 -97 7 -21 17 -38 21 -38 4 0 8 -6 8 -14 0 -8 17 -52 38 -98
22 -45 41 -90 45 -99 5 -14 -60 -16 -704 -16 l-710 0 7 41 c5 37 48 219 60
256 3 8 5 16 4 18 0 1 6 15 15 32 8 16 16 37 18 47 13 67 170 374 230 448 4 6
26 35 48 65 91 126 219 258 350 364 46 36 85 66 87 66 2 0 13 -21 25 -47z
m1348 -1690 c13 -21 27 -42 31 -48 5 -5 40 -59 78 -120 38 -60 74 -115 80
-122 5 -7 10 -15 10 -18 0 -3 23 -39 50 -80 28 -41 50 -79 50 -85 0 -5 5 -10
10 -10 6 0 10 -7 10 -15 0 -8 5 -15 10 -15 6 0 10 -5 10 -10 0 -6 9 -23 19
-38 37 -53 141 -213 141 -217 0 -8 64 -100 72 -103 4 -2 8 -10 8 -17 0 -8 6
-20 13 -27 8 -7 16 -18 18 -24 4 -10 70 -114 261 -410 40 -61 65 -110 62 -119
-3 -8 -10 -12 -15 -9 -5 3 -9 1 -9 -4 0 -5 -25 -29 -56 -53 -31 -24 -61 -49
-68 -55 -42 -39 -292 -186 -312 -183 -4 0 -10 -3 -13 -8 -6 -8 -75 -37 -171
-72 -121 -43 -296 -83 -372 -85 -10 0 -18 -3 -18 -6 0 -8 -413 -4 -455 4 -16
3 -46 8 -65 11 -120 18 -307 76 -430 133 -41 20 -77 36 -80 37 -31 8 -232 132
-238 147 -2 5 -8 8 -14 8 -30 0 -378 326 -378 354 0 3 -11 17 -24 31 -73 79
-247 382 -287 500 -8 22 -16 42 -19 45 -3 3 -7 12 -9 20 -7 31 -8 35 -14 50
-24 67 -53 179 -76 295 -10 53 -15 98 -11 100 4 3 444 5 977 5 l970 0 53 27
c55 28 124 86 113 97 -4 3 -1 6 5 6 12 0 39 56 47 95 5 26 4 25 9 25 2 0 15
-17 27 -37z m1300 -2030 c13 -21 28 -41 33 -45 7 -5 7 -8 1 -8 -6 0 -6 -3 1
-8 9 -6 233 -352 259 -401 6 -10 16 -26 23 -34 10 -12 9 -15 -6 -19 -11 -3
-26 -1 -35 3 -9 6 -18 5 -22 0 -3 -6 -15 -7 -28 -2 -12 5 -32 5 -44 0 -14 -5
-23 -5 -23 1 0 5 -12 5 -29 0 -15 -4 -34 -4 -41 0 -7 5 -19 6 -27 3 -22 -8
-263 -9 -263 -1 0 4 -6 5 -14 2 -21 -8 -187 -10 -192 -2 -3 4 -12 4 -20 1 -23
-8 -254 -9 -254 -1 0 4 -6 5 -14 2 -20 -8 -185 -10 -180 -3 2 4 -11 4 -29 0
-28 -5 -184 -6 -227 -1 -16 2 26 16 75 26 44 9 60 12 63 14 1 2 5 3 10 4 4 2
27 8 52 15 25 7 50 14 55 16 6 1 19 6 30 10 11 4 58 23 105 42 47 19 90 35 95
37 24 6 130 61 133 68 2 4 12 8 22 8 10 0 20 3 22 8 2 4 23 18 48 31 97 52
317 205 363 253 25 25 32 23 58 -19z m-10944 4 c4 -7 24 -24 43 -37 19 -13 40
-29 47 -35 29 -24 42 -34 118 -83 44 -28 85 -55 90 -59 11 -8 59 -34 165 -88
65 -33 113 -55 200 -89 25 -10 53 -22 62 -27 10 -5 25 -9 33 -9 8 0 23 -4 33
-9 9 -5 42 -16 72 -25 51 -14 136 -37 153 -42 4 -1 18 -2 32 -3 14 0 25 -5 25
-10 0 -4 -324 -8 -719 -9 -396 0 -725 -3 -730 -7 -29 -17 15 72 62 125 7 8 48
68 92 133 43 64 83 117 88 117 4 0 6 4 2 9 -3 5 1 15 8 23 7 7 32 41 56 76 46
64 55 71 68 49z m1098 -517 c3 -5 1 -10 -4 -10 -6 0 -11 5 -11 10 0 6 2 10 4
10 3 0 8 -4 11 -10z"/>
</g>
</svg>
