<?xml version="1.0" standalone="no"?>
<!DOCTYPE svg PUBLIC "-//W3C//DTD SVG 20010904//EN"
 "http://www.w3.org/TR/2001/REC-SVG-20010904/DTD/svg10.dtd">
<svg version="1.0" xmlns="http://www.w3.org/2000/svg"
 width="1280.000000pt" height="1280.000000pt" viewBox="0 0 1280.000000 1280.000000"
 preserveAspectRatio="xMidYMid meet">
<metadata>
Created by potrace 1.11, written by Peter Selinger 2001-2013
</metadata>
<g transform="translate(0.000000,1280.000000) scale(0.100000,-0.100000)"
fill="#000000" stroke="none">
<path d="M6283 11161 c-16 -22 -53 -76 -83 -121 -30 -45 -60 -87 -66 -94 -6
-7 -19 -25 -28 -41 -9 -17 -45 -70 -81 -120 -36 -49 -68 -97 -72 -105 -4 -8
-9 -17 -12 -20 -3 -3 -24 -32 -46 -65 -22 -33 -42 -62 -46 -65 -3 -3 -23 -32
-44 -65 -22 -33 -44 -63 -50 -67 -6 -5 -6 -8 0 -8 6 0 5 -4 -2 -8 -6 -4 -51
-65 -99 -137 -48 -71 -91 -131 -96 -133 -4 -2 -8 -8 -8 -14 0 -10 -39 -64 -41
-57 -1 2 -3 24 -4 49 -2 25 -3 47 -4 50 -1 3 -225 5 -500 5 -426 -1 -500 -3
-512 -15 -8 -9 -43 -51 -78 -95 -36 -44 -72 -87 -80 -97 -9 -9 -27 -31 -41
-49 -14 -18 -50 -63 -80 -99 -30 -36 -59 -71 -65 -78 -5 -7 -20 -24 -33 -37
-13 -14 -21 -25 -18 -25 3 0 -10 -17 -29 -37 l-34 -37 91 -176 c51 -96 102
-195 114 -219 13 -25 20 -49 16 -55 -3 -6 -7 -15 -8 -21 -1 -5 -12 -41 -25
-80 -13 -38 -23 -72 -24 -75 0 -3 -3 -9 -6 -15 -5 -8 -15 -39 -25 -80 -1 -5
-10 -32 -19 -60 -10 -27 -19 -54 -20 -60 -1 -5 -5 -17 -8 -25 -7 -19 -41 -123
-42 -130 0 -3 -9 -30 -20 -60 -10 -30 -20 -59 -21 -65 -1 -5 -12 -37 -23 -70
-22 -61 -28 -79 -35 -114 -3 -11 -10 -30 -17 -43 -7 -13 -11 -24 -10 -26 2 -1
-16 -60 -39 -130 -23 -70 -43 -131 -44 -137 -1 -5 -7 -23 -13 -40 -15 -39
-135 -417 -137 -430 0 -5 -4 -12 -8 -15 -4 -3 -9 -19 -12 -35 -3 -17 -45 -87
-93 -158 -49 -70 -93 -135 -98 -146 -10 -17 -16 -15 -95 22 -47 21 -89 40 -95
41 -5 1 -27 10 -49 19 -21 9 -45 17 -52 17 -8 0 -22 4 -32 10 -18 10 -110 38
-152 46 -14 3 -41 9 -60 14 -19 5 -46 11 -60 14 -14 2 -41 7 -60 11 -106 20
-209 28 -360 29 -134 1 -271 -7 -330 -19 -13 -2 -42 -7 -65 -10 -22 -4 -80
-16 -130 -28 -49 -11 -92 -21 -95 -22 -20 -5 -111 -35 -135 -46 -16 -6 -34
-13 -40 -14 -5 0 -23 -6 -38 -13 -16 -7 -30 -12 -33 -12 -2 0 -42 -18 -88 -40
-46 -22 -88 -40 -95 -40 -6 0 -11 -4 -11 -9 0 -5 -8 -11 -18 -14 -9 -3 -39
-19 -67 -35 -27 -16 -61 -35 -75 -43 -14 -8 -27 -16 -30 -20 -3 -3 -26 -19
-53 -37 -26 -17 -53 -36 -60 -42 -6 -5 -50 -40 -97 -77 -160 -125 -397 -381
-505 -543 -17 -25 -34 -49 -38 -55 -24 -30 -75 -115 -69 -115 4 0 2 -4 -4 -8
-12 -8 -36 -50 -55 -94 -6 -16 -15 -28 -20 -28 -5 0 -9 -5 -9 -11 0 -6 -22
-57 -50 -114 -27 -56 -52 -114 -56 -129 -3 -14 -10 -29 -15 -32 -5 -3 -9 -15
-9 -28 0 -12 -3 -26 -8 -30 -4 -4 -7 -11 -7 -14 -1 -4 -11 -34 -23 -66 -26
-68 -81 -264 -85 -305 -2 -15 -7 -32 -11 -39 -4 -7 -5 -16 -1 -21 3 -5 1 -12
-5 -16 -6 -4 -8 -10 -6 -14 3 -4 1 -25 -4 -47 -5 -21 -12 -66 -16 -99 -3 -33
-8 -63 -10 -67 -8 -13 -18 -220 -17 -373 0 -184 7 -289 29 -425 3 -19 7 -48 9
-65 3 -16 7 -41 10 -55 3 -14 8 -36 10 -50 2 -14 6 -34 9 -45 2 -11 12 -51 21
-90 9 -38 37 -131 62 -205 25 -74 46 -141 46 -147 0 -7 4 -13 8 -13 4 0 9 -10
13 -23 3 -12 20 -54 38 -92 17 -39 32 -72 33 -75 0 -3 22 -44 48 -92 26 -48
47 -92 47 -98 0 -5 5 -10 10 -10 6 0 10 -5 10 -10 0 -6 34 -62 76 -124 84
-128 83 -115 19 -206 -94 -135 -121 -173 -130 -188 -15 -25 -58 -86 -65 -92
-4 -3 -17 -24 -30 -47 -13 -24 -27 -43 -32 -43 -4 0 -8 -6 -8 -14 0 -8 -3 -16
-7 -18 -5 -1 -35 -43 -68 -93 -33 -49 -63 -92 -66 -95 -3 -3 -23 -32 -44 -65
-22 -33 -43 -61 -47 -63 -5 -2 -8 -98 -8 -213 l0 -209 6400 0 6400 0 0 206 0
205 -85 130 c-47 72 -85 134 -85 138 0 4 -9 16 -20 26 -11 10 -20 22 -20 27 0
5 -27 49 -60 98 -33 49 -60 92 -60 95 0 3 -5 11 -10 18 -16 18 -192 290 -197
305 -3 7 13 38 35 70 49 70 132 210 132 223 0 5 5 9 11 9 5 0 8 4 5 9 -4 5 -3
11 1 13 8 3 113 214 118 238 2 5 14 36 38 95 6 17 12 32 13 35 0 3 4 14 8 25
5 11 15 38 23 59 17 48 90 331 98 384 3 21 8 49 10 62 3 14 8 48 11 75 3 28 7
55 9 62 11 33 19 207 19 378 0 173 -4 245 -20 375 -3 25 -7 59 -9 75 -2 17 -4
30 -5 30 -1 0 -4 14 -6 30 -3 17 -13 71 -24 120 -11 50 -21 99 -23 110 -13 72
-121 383 -163 468 -13 26 -21 47 -17 47 3 0 1 6 -5 13 -5 6 -35 61 -66 121
-47 92 -215 360 -235 376 -3 3 -22 25 -41 50 -19 25 -42 54 -50 64 -23 29
-193 208 -214 225 -10 9 -33 29 -50 46 -17 16 -51 45 -75 64 -25 18 -54 43
-65 53 -78 73 -465 294 -574 328 -15 5 -52 18 -82 30 -30 12 -66 23 -79 26
-13 3 -32 9 -43 15 -10 5 -18 7 -18 5 0 -3 -11 -1 -25 4 -14 5 -36 12 -48 15
-104 23 -212 41 -317 53 -118 12 -419 6 -520 -12 -14 -3 -43 -7 -65 -10 -22
-2 -62 -10 -90 -16 -27 -7 -57 -13 -65 -15 -57 -12 -158 -41 -234 -67 l-88
-30 -24 27 c-13 16 -24 34 -24 42 0 7 -4 13 -10 13 -5 0 -10 6 -10 13 0 8 -9
22 -20 32 -11 10 -20 22 -20 27 0 5 -22 42 -50 83 -27 41 -50 79 -50 85 0 5
-4 10 -10 10 -5 0 -10 5 -10 10 0 6 -5 16 -11 23 -6 7 -50 75 -99 152 -49 77
-94 145 -99 152 -6 7 -11 15 -11 18 0 3 -9 18 -19 33 -56 80 -141 214 -141
222 0 6 -4 10 -9 10 -5 0 -14 14 -21 30 -7 17 -16 30 -21 30 -5 0 -9 4 -9 10
0 5 -34 62 -76 125 -41 63 -73 119 -70 124 3 5 18 12 33 16 16 3 58 22 94 40
37 19 70 31 73 28 3 -4 6 -1 6 5 0 6 13 18 29 26 68 36 238 222 277 305 45 94
30 158 -45 200 -38 21 -58 25 -130 24 -85 0 -313 -9 -441 -18 -224 -14 -310
-15 -310 -1 0 8 -6 21 -13 28 -7 7 -37 51 -67 98 -29 47 -87 136 -127 197 -40
62 -73 117 -73 123 0 5 -4 10 -8 10 -4 0 -25 28 -45 63 -21 34 -69 109 -107
167 -39 58 -74 112 -78 120 -13 27 -67 105 -74 108 -5 2 -8 8 -8 13 0 5 -58
99 -130 209 -71 111 -130 205 -130 210 0 4 -3 10 -8 12 -4 2 -32 41 -61 88
-30 47 -78 121 -106 165 -29 44 -78 121 -110 170 -32 50 -75 115 -96 147 -22
31 -39 59 -39 62 0 6 -39 65 -50 76 -3 3 -11 17 -19 33 l-14 27 -289 0 -288 0
-27 -39z m382 -363 c37 -57 100 -155 140 -218 41 -63 79 -120 85 -127 5 -7 10
-15 10 -19 0 -3 15 -27 33 -53 17 -25 37 -54 42 -63 12 -22 186 -291 312 -485
51 -78 93 -147 93 -153 0 -5 4 -10 8 -10 4 0 16 -15 26 -32 33 -57 90 -143 99
-149 5 -3 9 -10 9 -15 1 -5 25 -45 55 -90 29 -45 53 -86 53 -92 0 -5 7 -13 16
-16 9 -4 14 -9 10 -13 -3 -4 2 -16 12 -27 10 -12 38 -52 62 -91 24 -38 49 -79
57 -91 13 -20 12 -21 -54 -24 -38 -2 -96 -4 -130 -4 -35 -1 -63 -3 -63 -6 0
-3 -39 -6 -88 -7 -148 -2 -247 -9 -260 -17 -7 -4 -12 -2 -12 4 0 6 -3 9 -7 7
-5 -3 -30 -8 -57 -11 -119 -16 -191 -96 -166 -184 10 -38 50 -102 64 -102 4 0
21 -11 38 -25 31 -26 268 -148 268 -138 0 3 6 1 13 -4 11 -10 223 -92 250 -97
7 -2 19 -6 27 -9 8 -3 44 -13 80 -22 36 -9 74 -18 85 -21 11 -3 28 -6 37 -6
25 1 28 -20 11 -72 -13 -39 -19 -46 -42 -46 -117 -1 -748 -1 -756 1 -5 1 -14
0 -20 -1 -12 -2 -206 -2 -220 1 -5 1 -14 0 -20 -1 -12 -2 -206 -2 -220 1 -5 1
-14 0 -20 -1 -12 -2 -206 -2 -220 1 -5 1 -14 0 -20 -1 -12 -2 -206 -2 -220 1
-5 1 -14 1 -19 0 -23 -5 -1248 -2 -1253 2 -2 3 8 23 24 45 15 22 35 50 43 62
8 12 21 28 28 36 6 7 12 15 12 19 0 5 102 155 170 250 18 26 364 531 527 770
30 44 60 83 66 87 7 4 8 8 4 8 -4 0 -3 6 3 13 23 27 90 128 90 137 0 4 4 10 9
12 5 2 45 57 90 123 97 144 93 138 137 200 20 28 61 88 92 135 31 47 60 87 64
88 5 2 8 10 8 17 0 7 3 15 8 17 6 3 45 58 153 218 24 36 46 67 49 70 9 9 133
192 185 273 16 26 33 47 36 47 4 0 37 -46 74 -102z m-1347 -1037 c5 -2 -102
-155 -110 -159 -5 -2 -8 -8 -8 -13 0 -9 -36 -66 -50 -79 -3 -3 -26 -35 -50
-72 -25 -38 -48 -68 -52 -68 -5 0 -8 -5 -8 -11 0 -6 -31 -56 -70 -110 -38 -55
-70 -104 -70 -109 0 -4 -4 -10 -8 -12 -4 -1 -36 -46 -72 -98 -35 -52 -67 -96
-72 -98 -4 -2 -8 -9 -8 -15 0 -6 -7 -19 -17 -29 -9 -10 -21 -27 -27 -37 -28
-48 -102 -151 -109 -151 -5 0 -6 4 -3 8 3 5 7 19 10 33 3 13 16 66 30 117 13
50 22 92 19 92 -3 0 0 6 6 14 6 8 11 18 10 22 -1 5 0 11 1 14 1 3 3 12 5 20 1
8 13 53 25 100 l23 86 -96 194 -95 195 27 30 c14 17 42 51 61 75 19 24 40 48
46 55 8 7 107 10 335 9 178 -1 325 -2 327 -3z m3178 -1804 c76 -119 144 -225
149 -234 6 -9 14 -22 18 -27 26 -34 127 -199 127 -206 0 -5 6 -13 13 -17 7 -4
21 -25 32 -45 11 -21 23 -38 27 -38 5 0 8 -6 8 -13 0 -8 9 -22 20 -32 11 -10
18 -20 16 -23 -3 -2 0 -9 5 -16 5 -6 41 -60 80 -121 39 -60 81 -125 94 -144
24 -34 24 -61 0 -61 -7 0 -15 -6 -18 -12 -7 -19 -21 -2 -160 192 -69 96 -130
180 -134 185 -5 6 -24 33 -43 60 -19 28 -38 52 -43 53 -4 2 -5 8 -1 13 3 5 1
9 -4 9 -5 0 -31 31 -57 69 -26 39 -53 75 -61 82 -8 6 -14 18 -14 25 0 8 -4 14
-10 14 -5 0 -10 6 -10 13 0 7 -9 19 -20 27 -11 8 -20 18 -20 23 0 4 -5 13 -11
20 -5 7 -43 59 -84 117 -41 58 -78 110 -82 115 -4 6 -14 18 -21 27 -11 13 -10
26 4 75 9 32 19 63 23 68 6 10 8 17 10 37 2 20 21 -6 167 -235z m-851 -245
c-4 -12 -38 -121 -40 -132 -11 -52 -19 -77 -27 -87 -6 -7 -8 -13 -5 -13 4 0 0
-19 -9 -41 -8 -23 -16 -51 -18 -63 -3 -12 -32 -111 -65 -221 -81 -274 -132
-447 -136 -465 -2 -8 -4 -16 -5 -17 -2 -2 -4 -7 -5 -13 -1 -5 -3 -11 -5 -12
-1 -2 -3 -11 -5 -20 -2 -10 -13 -49 -25 -88 -12 -39 -23 -76 -24 -83 -2 -7 -6
-19 -9 -27 -4 -12 -50 -165 -71 -235 -1 -5 -6 -27 -11 -48 -4 -20 -11 -40 -16
-43 -5 -3 -7 -10 -4 -15 4 -5 3 -15 -2 -21 -4 -7 -8 -15 -8 -18 -1 -7 -30
-107 -55 -190 -11 -36 -34 -112 -51 -170 -17 -58 -33 -112 -36 -120 -3 -8 -7
-22 -9 -30 -4 -21 -10 -43 -17 -60 -5 -13 -26 -86 -33 -115 -1 -5 -9 -30 -17
-55 -8 -25 -21 -69 -28 -97 -14 -57 -26 -70 -24 -25 1 15 -2 36 -5 47 -7 19
-18 19 -267 20 l-260 0 4 -65 c1 -36 5 -94 7 -130 l4 -65 56 -1 c31 -1 58 -3
60 -5 2 -2 7 -46 11 -98 7 -106 10 -105 -62 -11 -23 30 -50 64 -60 75 -10 11
-30 36 -43 55 -14 19 -33 44 -43 55 -10 11 -50 61 -89 110 -39 50 -83 106 -98
125 -16 19 -85 107 -155 195 -70 88 -139 176 -155 195 -25 31 -104 130 -306
385 -31 39 -66 84 -79 100 -14 17 -101 127 -195 245 -94 118 -176 222 -183
230 -7 8 -46 58 -87 110 -41 52 -77 97 -80 100 -16 16 -90 110 -90 115 0 3
-10 16 -22 29 -13 13 -34 38 -48 56 -38 49 -89 113 -101 129 -7 7 -50 61 -96
120 -46 58 -98 124 -116 145 -18 21 -36 46 -41 54 -4 8 -17 23 -28 34 -18 18
-18 21 -3 41 8 12 18 30 22 40 3 9 8 17 12 17 3 0 17 18 31 40 l24 39 81 3
c44 2 774 3 1623 3 1271 1 1542 -2 1537 -13z m529 -382 c31 -41 64 -86 74 -99
9 -13 22 -29 27 -35 6 -6 26 -34 44 -61 19 -28 38 -52 41 -55 3 -3 57 -75 120
-160 63 -85 117 -157 120 -160 3 -3 17 -21 32 -41 l27 -37 -20 -23 c-11 -13
-39 -45 -62 -71 -134 -149 -263 -333 -353 -503 -26 -49 -51 -93 -56 -96 -6 -3
-10 -10 -10 -15 -1 -13 -11 -39 -48 -119 -18 -38 -33 -74 -35 -80 -1 -5 -7
-23 -14 -40 -51 -125 -134 -426 -146 -530 -2 -16 -4 -30 -5 -30 -3 0 -6 -25
-25 -170 -14 -110 -20 -239 -19 -431 0 -140 -3 -211 -10 -211 -23 -2 -132 -14
-156 -18 -14 -2 -54 -7 -90 -11 -36 -3 -76 -8 -90 -9 -14 -2 -54 -6 -90 -10
-36 -3 -76 -8 -90 -10 -63 -11 -150 -16 -150 -9 0 4 12 46 26 93 15 48 27 91
29 96 1 6 9 35 19 66 9 31 18 65 20 75 3 11 9 31 15 47 6 15 13 38 15 50 3 12
31 108 62 212 31 105 58 197 59 205 1 8 5 22 9 30 6 14 66 218 107 365 11 39
22 77 26 85 3 8 8 24 10 35 3 19 10 40 29 90 4 11 7 23 6 27 -1 4 3 20 9 35 6
15 12 35 14 44 2 9 18 63 35 120 17 57 34 115 36 128 3 14 7 28 10 33 3 5 17
48 30 96 14 48 27 94 29 102 2 8 9 31 14 50 5 19 24 82 41 140 40 134 60 201
65 220 2 8 4 15 5 15 1 0 3 8 5 17 3 16 11 45 65 223 9 33 23 80 30 105 7 25
19 65 27 90 8 25 16 53 18 63 12 58 50 166 56 160 5 -5 33 -42 63 -83z m-4064
-379 c0 -3 10 -18 23 -32 12 -15 65 -81 117 -149 52 -67 105 -133 118 -146 12
-13 22 -26 22 -29 0 -4 6 -12 13 -19 6 -7 23 -28 37 -46 32 -42 116 -149 138
-175 9 -11 59 -74 111 -140 52 -66 99 -125 105 -131 6 -6 22 -27 36 -47 14
-20 28 -37 33 -37 4 0 7 -4 7 -10 0 -5 8 -18 18 -28 20 -22 29 -34 97 -122 28
-36 52 -67 55 -70 3 -3 63 -79 134 -170 71 -91 135 -170 142 -176 8 -6 14 -14
14 -18 0 -3 9 -16 19 -28 17 -20 225 -283 299 -377 15 -19 50 -63 77 -97 28
-34 86 -108 130 -165 44 -56 89 -111 99 -121 11 -10 16 -18 10 -18 -5 0 -4 -4
1 -8 15 -11 145 -170 145 -178 0 -4 6 -12 13 -18 8 -6 47 -54 88 -106 40 -52
76 -97 79 -100 3 -3 19 -23 35 -45 17 -22 32 -42 35 -45 3 -3 18 -23 35 -45
16 -22 35 -46 42 -53 9 -10 11 -31 7 -70 -7 -71 -7 -96 1 -147 8 -53 61 -161
99 -203 32 -35 108 -92 129 -96 7 -2 25 -8 40 -14 16 -7 32 -12 36 -12 7 0 28
-80 68 -260 8 -36 17 -74 19 -85 3 -11 7 -31 10 -45 3 -14 7 -33 10 -42 3 -10
7 -30 10 -44 3 -14 11 -51 19 -82 21 -80 22 -79 -40 -77 -42 1 -56 -2 -59 -14
-9 -36 -3 -261 8 -262 34 -2 238 7 314 14 18 2 32 -2 32 -7 0 -8 3 -8 8 -1 6
10 33 12 182 20 25 2 49 3 53 4 7 1 2 139 -8 216 -1 11 -3 26 -4 32 -1 9 -20
13 -58 12 -122 -2 -116 -6 -127 71 -3 19 -10 60 -16 90 -15 77 -23 123 -23
138 0 6 -3 12 -6 12 -3 0 -6 10 -7 23 0 20 -4 41 -17 112 -3 11 -7 36 -11 55
-3 19 -8 46 -11 60 -17 82 -19 75 54 148 63 64 108 126 103 144 -1 4 8 10 21
13 37 9 121 26 142 29 11 1 34 5 50 9 17 4 41 9 55 11 14 3 36 8 50 11 14 3
39 8 55 10 17 3 37 8 46 11 10 2 31 6 48 9 17 2 39 6 50 10 10 3 32 7 47 9 16
2 41 7 57 10 79 17 75 18 82 -17 31 -146 223 -622 257 -635 4 -2 8 -10 8 -18
0 -7 20 -45 44 -83 25 -38 42 -72 39 -75 -4 -3 -2 -6 3 -6 6 0 20 -18 33 -40
12 -22 26 -40 32 -40 5 0 9 -5 9 -11 0 -10 59 -91 130 -179 76 -93 242 -263
320 -326 19 -16 37 -31 40 -34 29 -33 317 -230 336 -230 7 0 14 -4 16 -8 3 -8
217 -119 228 -119 3 0 21 -7 40 -15 19 -9 51 -21 70 -28 19 -7 44 -16 55 -21
16 -7 109 -35 150 -45 20 -5 60 -14 93 -20 17 -3 32 -9 32 -13 0 -10 -31 -8
-48 3 -6 4 -12 4 -12 -1 0 -4 -49 -8 -110 -8 -60 0 -110 4 -110 8 0 5 -5 5
-12 1 -6 -4 -1519 -8 -3361 -9 -1842 -1 -3343 2 -3335 6 7 3 31 10 54 13 22 4
85 21 140 37 54 16 104 31 109 33 6 1 27 10 49 19 21 9 42 17 47 17 16 0 241
111 308 151 34 22 67 39 72 39 5 0 9 4 9 9 0 5 9 13 20 16 11 3 26 12 32 19 7
6 36 27 63 46 130 88 362 302 460 425 22 28 43 52 46 55 3 3 33 43 67 90 34
47 66 90 72 97 5 7 10 14 10 17 0 2 17 31 38 63 88 132 255 481 277 578 2 11
14 47 25 80 20 57 56 190 67 245 8 41 11 55 13 55 3 0 16 78 23 142 2 12 5 25
9 28 3 4 4 20 1 36 -2 16 -1 29 4 29 11 0 17 121 17 380 1 213 -6 322 -28 455
-11 70 -18 109 -22 129 -3 11 -7 32 -10 46 -3 14 -10 43 -16 65 -5 22 -12 49
-14 60 -11 58 -92 305 -106 320 -4 5 -8 19 -8 32 0 13 -4 23 -10 23 -5 0 -10
7 -10 15 0 8 -4 23 -9 33 -29 55 -50 102 -45 102 4 0 2 6 -4 13 -6 6 -33 57
-62 112 -43 84 -210 349 -229 365 -4 3 -22 25 -40 50 -19 25 -41 52 -50 60 -9
8 -27 29 -39 45 -30 38 -127 139 -180 187 -49 44 -49 45 4 183 9 24 8 22 18
62 5 22 12 30 22 26 8 -3 14 -8 14 -12z m-1455 -215 c107 -14 174 -28 260 -51
33 -9 65 -18 70 -19 6 -1 15 -4 20 -7 6 -4 31 -12 58 -20 26 -7 47 -17 47 -22
0 -4 4 -6 8 -3 4 2 14 1 21 -4 11 -6 -7 -39 -73 -136 -148 -219 -325 -478
-343 -502 -9 -13 -60 -87 -114 -165 -54 -78 -116 -169 -139 -202 -53 -77 -346
-504 -362 -529 -7 -10 -28 -39 -45 -62 -18 -24 -30 -44 -27 -44 3 0 -1 -7 -9
-15 -8 -8 -25 -31 -38 -52 -13 -21 -31 -47 -41 -57 -10 -11 -20 -28 -24 -38
-3 -10 -10 -18 -15 -18 -5 0 -9 -7 -9 -15 0 -8 -4 -15 -10 -15 -5 0 -10 -5
-10 -10 0 -6 -5 -16 -10 -23 -19 -22 -115 -159 -135 -193 -11 -18 -27 -41 -35
-51 -9 -10 -26 -36 -40 -58 -13 -22 -26 -42 -29 -45 -4 -3 -24 -32 -46 -65
-22 -33 -46 -66 -52 -73 -7 -7 -13 -17 -13 -22 0 -5 -6 -15 -13 -22 -12 -12
-138 -195 -162 -235 -11 -19 -25 -38 -40 -56 -6 -7 -21 -29 -34 -50 -13 -21
-28 -43 -34 -50 -7 -7 -16 -20 -22 -30 -14 -23 -168 -247 -232 -337 -30 -41
-57 -83 -60 -93 -14 -45 -52 5 -142 188 -46 95 -104 226 -107 245 0 3 -8 30
-18 60 -22 71 -63 226 -69 265 -3 17 -8 37 -11 45 -3 8 -7 38 -10 65 -3 28 -7
60 -10 72 -3 13 -7 69 -11 125 -3 56 -8 104 -10 106 -3 3 0 11 6 18 7 8 7 14
-1 19 -6 3 -8 10 -5 15 3 5 7 64 10 132 2 68 7 134 10 148 2 14 7 45 10 70 9
89 37 214 71 330 15 46 27 92 29 102 2 9 8 25 14 36 6 11 7 22 4 26 -3 3 -1 6
5 6 7 0 12 9 12 20 0 11 5 20 11 20 5 0 8 4 5 8 -6 11 102 244 117 250 4 2 7
9 7 15 1 11 67 118 90 144 5 7 10 16 10 21 0 5 14 24 30 42 17 18 30 36 30 39
0 4 10 17 23 31 12 14 35 41 50 60 42 52 173 185 219 222 22 18 52 43 66 56
41 36 217 152 229 152 6 0 13 4 15 8 4 11 166 92 184 92 8 0 14 5 14 10 0 6
11 10 25 10 14 0 25 5 25 11 0 6 6 9 14 6 7 -3 17 -2 22 3 8 8 165 55 213 65
13 2 31 7 42 10 11 4 38 8 62 10 61 6 152 17 154 19 5 4 255 -2 298 -8z m7870
-1 c83 -11 98 -13 155 -24 30 -6 83 -20 117 -31 34 -11 70 -21 80 -23 10 -2
27 -8 38 -14 11 -6 29 -13 40 -14 26 -5 285 -136 306 -155 8 -8 19 -14 22 -14
8 0 113 -74 166 -118 129 -104 254 -233 342 -350 23 -31 55 -74 71 -94 15 -20
28 -40 28 -43 0 -4 14 -26 30 -50 17 -24 30 -48 30 -53 0 -6 4 -12 8 -14 14
-6 151 -297 152 -323 0 -3 7 -19 15 -35 9 -17 13 -30 9 -30 -4 0 -1 -7 6 -15
7 -8 9 -15 6 -15 -4 0 -1 -10 6 -22 6 -13 13 -30 14 -38 1 -8 9 -42 18 -75 20
-72 28 -111 30 -145 0 -14 4 -27 8 -30 7 -5 18 -85 21 -152 1 -21 4 -38 7 -38
3 0 5 -34 5 -76 0 -42 2 -77 5 -79 9 -5 -3 -291 -15 -375 -2 -14 -6 -47 -10
-75 -8 -58 -8 -57 -30 -155 -30 -135 -68 -259 -110 -363 -38 -90 -137 -291
-147 -295 -4 -2 -8 -10 -8 -18 0 -27 -17 -14 -48 36 -17 28 -31 53 -31 55 -1
5 -12 20 -38 50 -7 7 -13 16 -13 20 0 3 -22 39 -50 80 -27 41 -50 76 -50 79 0
8 -64 101 -72 104 -5 2 -8 8 -8 14 0 5 -13 29 -30 53 -16 24 -30 46 -30 50 0
3 -8 15 -18 26 -11 10 -25 32 -33 47 -8 15 -17 32 -22 37 -11 14 -39 59 -162
250 -186 290 -224 350 -235 362 -5 7 -10 14 -10 17 0 6 -145 227 -160 244 -6
6 -8 12 -4 12 4 0 -2 10 -13 23 -11 12 -23 29 -26 37 -4 8 -34 56 -67 105 -33
50 -63 98 -67 108 -3 9 -9 17 -14 17 -5 0 -9 4 -9 9 0 5 -26 49 -59 98 -32 48
-86 133 -121 188 -35 55 -67 102 -72 103 -4 2 -8 8 -8 14 0 6 -20 40 -44 77
-121 185 -216 332 -216 337 0 3 -6 11 -12 19 -7 7 -49 70 -93 140 -44 69 -108
169 -142 222 -35 52 -63 99 -63 104 0 5 -4 9 -9 9 -5 0 -13 10 -17 23 -4 12
-10 24 -14 27 -10 7 -62 91 -58 95 5 4 128 33 168 39 19 3 49 8 65 11 17 3 66
8 110 11 44 4 81 7 82 8 6 5 254 -3 298 -9z m-986 -399 c14 -21 30 -46 36 -57
5 -10 48 -77 95 -148 47 -72 90 -139 95 -148 6 -10 28 -45 50 -77 55 -83 84
-128 92 -146 4 -8 9 -17 13 -20 4 -3 35 -50 70 -105 35 -55 93 -145 128 -200
36 -55 79 -122 97 -150 18 -27 55 -85 84 -128 28 -43 51 -80 51 -82 0 -2 17
-30 38 -62 58 -87 56 -83 21 -73 -18 5 -32 11 -33 12 -1 2 -14 20 -29 41 -16
20 -24 37 -20 37 4 0 3 4 -3 8 -9 5 -285 411 -447 657 -15 22 -30 45 -34 51
-5 5 -12 17 -18 26 -26 40 -111 164 -115 168 -3 3 -9 13 -15 22 -27 47 -270
403 -277 406 -4 2 -8 8 -8 13 0 5 -15 31 -34 58 l-34 48 36 21 36 21 50 -77
c27 -42 60 -94 75 -116z m-479 -239 c41 -62 78 -113 83 -115 4 -2 7 -8 7 -13
0 -6 5 -15 10 -22 39 -46 50 -61 50 -69 0 -4 7 -16 16 -25 8 -10 25 -33 37
-51 60 -89 182 -268 187 -272 3 -3 10 -12 15 -21 31 -50 91 -135 100 -141 7
-5 7 -8 0 -8 -5 0 -2 -5 8 -11 9 -5 17 -16 17 -24 0 -7 3 -15 8 -17 4 -1 36
-46 72 -98 35 -52 68 -96 72 -98 4 -2 8 -9 8 -16 0 -7 8 -21 19 -32 10 -11 24
-31 31 -44 7 -13 17 -29 22 -34 5 -6 41 -56 79 -111 l70 -100 -33 -7 c-18 -4
-49 -10 -68 -13 -20 -3 -47 -8 -60 -11 -89 -18 -133 -25 -138 -20 -3 3 -10 2
-16 -3 -6 -5 -29 -12 -51 -15 -88 -13 -111 -17 -125 -23 -8 -3 -26 -7 -40 -8
-14 -1 -38 -5 -55 -8 -34 -8 -91 -18 -120 -22 -18 -3 -172 -31 -220 -41 -11
-2 -72 -13 -135 -24 -63 -12 -122 -23 -130 -25 -8 -2 -34 -7 -56 -9 -23 -3
-53 -10 -67 -15 -14 -5 -27 -7 -31 -4 -3 3 -13 2 -23 -2 -10 -5 -21 -7 -25 -7
-4 1 -39 -5 -78 -13 -39 -8 -77 -15 -84 -15 -30 0 2 472 49 720 3 19 8 44 10
55 2 11 4 20 5 20 2 0 7 27 12 60 2 11 6 25 10 30 3 6 9 26 14 45 9 42 9 41
16 60 3 8 16 44 29 80 26 76 128 290 137 290 4 0 13 15 21 33 8 17 21 42 30
53 9 12 23 32 31 44 8 13 23 32 33 42 9 10 17 21 17 26 0 4 19 28 43 53 23 26
54 61 70 78 15 17 30 31 35 31 4 -1 41 -51 82 -113z m-5137 -88 c26 -31 47
-61 47 -67 0 -6 4 -12 9 -14 8 -3 70 -95 97 -143 6 -11 20 -36 32 -55 29 -49
69 -131 77 -157 3 -13 11 -23 16 -23 5 0 9 -7 9 -15 0 -8 9 -34 19 -58 20 -45
47 -115 51 -132 1 -5 7 -21 12 -35 17 -45 68 -263 83 -355 40 -252 38 -555 -5
-785 -17 -93 -18 -99 -35 -165 -9 -33 -17 -69 -20 -79 -35 -146 -195 -511
-252 -573 -6 -7 -15 -22 -18 -33 -3 -11 -11 -20 -16 -20 -5 0 -9 -7 -9 -15 0
-8 -3 -15 -8 -15 -4 0 -16 -16 -26 -35 -11 -19 -24 -35 -29 -35 -6 0 -8 -3 -5
-6 4 -3 -1 -13 -10 -23 -9 -9 -33 -37 -52 -61 -33 -43 -226 -239 -266 -270
-65 -51 -147 -111 -198 -144 -67 -44 -286 -158 -286 -149 0 3 -6 1 -12 -4 -24
-19 -242 -86 -318 -98 -14 -2 -38 -6 -54 -10 -15 -3 -47 -7 -71 -9 -24 -2 -47
-6 -51 -8 -9 -5 -339 -3 -339 2 0 1 -11 4 -25 5 -35 3 -111 14 -135 19 -101
22 -235 60 -260 75 -5 3 -16 6 -23 7 -31 5 -210 93 -285 141 -37 24 -72 43
-77 43 -6 0 -13 7 -16 15 -4 8 -11 15 -16 15 -15 0 -186 139 -248 201 -45 45
-50 53 -37 68 8 9 58 81 112 161 54 80 102 147 107 148 4 2 8 7 8 12 0 8 22
41 118 179 23 33 42 63 42 67 0 3 6 11 13 19 26 27 47 55 41 55 -3 0 7 17 24
38 29 38 147 208 236 342 28 41 52 77 56 80 5 5 97 139 115 169 6 9 12 18 15
21 3 3 23 32 45 65 21 33 41 62 45 65 3 3 17 22 29 43 l24 38 23 -41 c13 -23
24 -45 24 -48 0 -3 21 -25 46 -48 189 -176 467 -40 477 234 0 6 4 12 8 12 21
0 352 331 459 459 25 29 50 59 55 65 6 6 23 29 39 51 17 22 33 42 36 45 4 3 9
12 13 20 6 14 86 132 106 156 4 5 19 30 33 55 14 24 34 60 45 79 80 142 180
365 247 555 8 22 13 18 109 -96z m-647 35 c-8 -21 -24 -61 -37 -89 -12 -27
-23 -52 -24 -55 -2 -10 -60 -125 -65 -130 -3 -3 -18 -31 -35 -62 -16 -32 -34
-58 -38 -58 -5 0 -6 -4 -3 -9 4 -5 3 -11 -1 -13 -5 -1 -21 -23 -37 -48 -45
-71 -159 -220 -168 -220 -4 0 -8 -4 -8 -10 0 -5 -21 -33 -47 -61 -78 -83 -233
-240 -233 -234 0 8 74 110 82 113 5 2 8 8 8 13 0 9 113 176 139 206 6 7 11 15
11 18 0 6 41 67 51 75 5 4 33 47 74 111 34 56 120 175 127 177 4 2 8 10 8 18
0 8 5 14 10 14 6 0 10 5 10 11 0 6 14 28 30 49 17 21 30 43 30 49 0 7 7 14 15
17 8 3 17 14 20 24 3 10 17 30 30 46 14 16 25 35 25 42 0 6 4 12 9 12 5 0 13
9 16 21 4 11 9 19 11 16 2 -2 -2 -21 -10 -43z m3556 -1069 c7 -7 -15 -72 -28
-82 -5 -5 -6 -4 -2 0 3 5 3 21 -2 37 -10 33 13 64 32 45z m3839 -400 c13 -25
26 -45 29 -45 3 0 16 -20 30 -45 14 -25 28 -45 32 -45 5 0 8 -4 8 -10 0 -8 47
-82 236 -372 35 -54 64 -102 64 -107 0 -5 3 -11 8 -13 8 -4 52 -65 52 -73 0
-3 19 -34 43 -69 23 -34 53 -82 67 -105 14 -23 35 -54 47 -69 13 -15 23 -33
23 -39 0 -7 5 -13 11 -13 5 0 7 -4 4 -10 -3 -5 -3 -10 2 -10 4 0 24 -27 43
-60 19 -33 38 -60 43 -60 4 0 7 -5 7 -10 0 -6 16 -33 35 -60 19 -27 35 -54 35
-60 0 -5 5 -10 10 -10 6 0 10 -5 10 -10 0 -6 8 -23 19 -38 22 -31 125 -191
135 -210 11 -19 -179 -200 -274 -262 -13 -8 -32 -23 -42 -32 -10 -10 -22 -18
-27 -18 -5 0 -16 -6 -23 -13 -20 -20 -103 -67 -203 -116 -94 -46 -305 -125
-305 -115 0 4 -7 1 -15 -6 -8 -7 -15 -10 -15 -7 0 3 -15 1 -32 -4 -43 -12 -86
-21 -123 -24 -16 -2 -30 -4 -30 -5 0 -14 -353 -19 -450 -7 -63 8 -100 14 -100
17 0 1 -11 3 -25 5 -76 10 -264 69 -371 117 -78 34 -253 131 -280 154 -8 8
-20 14 -25 14 -5 0 -23 13 -41 28 -17 15 -44 36 -59 47 -84 60 -262 236 -345
341 -135 171 -267 407 -334 599 -9 28 -21 59 -26 70 -5 11 -11 29 -12 40 -2
11 -7 27 -10 35 -20 56 -20 56 72 75 47 9 100 21 116 26 17 4 44 11 60 14 46
8 75 14 93 19 9 3 31 8 47 11 47 8 75 14 93 19 9 3 28 7 42 10 27 5 109 22
150 31 14 3 35 7 48 9 12 3 30 7 40 10 9 3 28 7 42 10 27 5 109 22 150 31 14
3 34 7 45 9 11 3 51 12 89 21 37 9 71 14 74 11 3 -3 10 -2 17 4 6 5 26 11 45
13 19 3 42 7 50 10 8 3 29 8 45 11 26 4 47 9 105 21 8 2 15 4 15 5 0 1 11 3
25 4 14 2 35 6 47 10 13 4 35 9 50 12 16 3 56 11 89 19 59 14 92 14 114 0 21
-13 114 -13 159 1 26 7 66 27 88 43 42 30 101 107 108 139 2 9 8 28 13 42 5
14 9 40 8 58 0 17 2 32 5 32 3 0 17 -20 30 -45z m1344 -2088 c50 -70 355 -549
355 -557 0 -4 9 -15 20 -25 22 -20 26 -45 8 -46 -47 -3 -140 1 -147 6 -5 3
-12 1 -16 -4 -4 -7 -15 -7 -30 -1 -14 5 -25 6 -25 2 0 -6 -65 -7 -80 -2 -3 2
-9 2 -15 1 -26 -6 -326 -2 -335 4 -5 3 -10 3 -10 -2 0 -9 -215 -8 -230 2 -5 3
-10 3 -10 -2 0 -9 -215 -8 -230 2 -5 3 -10 3 -10 -2 0 -4 -49 -8 -110 -8 -60
0 -110 4 -110 8 0 5 -5 5 -11 1 -16 -9 -199 -11 -199 -1 0 5 -4 5 -10 2 -5 -3
-20 -8 -32 -10 -15 -3 -18 -1 -11 6 6 6 26 12 44 15 19 3 86 21 149 41 63 20
117 37 120 38 3 1 13 5 23 8 9 4 25 10 35 14 9 3 19 7 22 8 43 15 271 125 280
136 3 3 21 14 40 25 19 10 37 21 40 24 3 3 30 21 60 40 30 19 60 38 65 42 153
119 225 179 279 235 23 24 43 43 46 43 3 0 18 -19 35 -43z m-11113 -33 c117
-111 321 -262 438 -325 25 -13 47 -26 50 -29 9 -9 173 -88 230 -110 130 -52
270 -96 383 -120 21 -4 40 -10 43 -13 3 -2 -369 -5 -826 -5 -715 -1 -830 1
-830 14 0 8 5 14 11 14 5 0 7 5 4 10 -3 6 -2 10 3 10 4 0 20 17 33 38 58 87
214 317 220 322 3 3 23 32 44 65 22 33 42 62 45 65 3 3 18 25 34 49 35 55 49
71 58 68 4 -1 31 -25 60 -53z"/>
</g>
</svg>
