<?xml version="1.0" standalone="no"?>
<!DOCTYPE svg PUBLIC "-//W3C//DTD SVG 20010904//EN"
 "http://www.w3.org/TR/2001/REC-SVG-20010904/DTD/svg10.dtd">
<svg version="1.0" xmlns="http://www.w3.org/2000/svg"
 width="96.000000pt" height="96.000000pt" viewBox="0 0 96.000000 96.000000"
 preserveAspectRatio="xMidYMid meet">
<metadata>
Created by potrace 1.11, written by Peter Selinger 2001-2013
</metadata>
<g transform="translate(0.000000,96.000000) scale(0.100000,-0.100000)"
fill="#000000" stroke="none">
<path d="M0 480 l0 -480 480 0 480 0 0 480 0 480 -480 0 -480 0 0 -480z m482
83 c27 -24 23 -53 -7 -53 -24 0 -25 -2 -25 -75 l0 -75 89 0 c74 0 92 3 115 21
26 20 36 69 18 95 -11 17 -48 34 -75 34 -21 0 -25 6 -29 36 l-4 36 54 -6 c85
-10 125 -41 138 -103 8 -43 -1 -75 -31 -111 l-24 -29 25 -14 c58 -31 74 -136
28 -196 -43 -57 -73 -66 -231 -71 l-143 -5 0 267 0 266 42 0 c24 0 49 -7 60
-17z"/>
<path d="M458 295 c-5 -5 -8 -46 -8 -92 l0 -83 93 0 c107 0 151 18 161 68 8
36 -7 77 -33 92 -25 13 -203 25 -213 15z"/>
</g>
</svg>
